<svg width="357" height="76" viewBox="0 0 357 76" fill="none" xmlns="http://www.w3.org/2000/svg">
<path d="M0.0390625 50.8585L25.4125 39.5654L40.017 48.0352L42.9674 75.8222L24.97 75.6736L27.6253 56.3564L24.5274 54.5733L9.33283 66.4608L0.0390625 50.8585Z" fill="rgb(238, 188, 74)"/>
<path d="M41.6406 46.8456L64.0637 63.3394L72.9149 47.44L54.9174 40.1589V36.5927L72.9149 29.163L64.0637 13.4121L41.6406 29.906V46.8456Z" fill="rgb(238, 188, 74)"/>
<path d="M40.017 28.5692L42.9674 0.782227L24.97 1.07941L27.6253 20.3965L24.5274 22.1796L9.18531 10.2922L0.0390625 25.7459L25.4125 37.039L40.017 28.5692Z" fill="rgb(238, 188, 74)"/>
<path d="M132.958 34.9721V61.0045H142.644V27.8286H128.538V34.9721H132.958Z" fill="rgb(238, 188, 74)"/>
<path d="M132.655 23.1672C133.543 24.0953 134.895 24.5593 136.711 24.5593C138.528 24.5593 139.859 24.0953 140.706 23.1672C141.595 22.1981 142.038 20.9873 142.038 19.5347C142.038 18.0412 141.595 16.8304 140.706 15.9023C139.859 14.9337 138.528 14.4492 136.711 14.4492C134.895 14.4492 133.543 14.9337 132.655 15.9023C131.808 16.8304 131.384 18.0412 131.384 19.5347C131.384 20.9873 131.808 22.1981 132.655 23.1672Z" fill="rgb(238, 188, 74)"/>
<path d="M99.2376 60.2777C101.982 61.529 105.352 62.1549 109.347 62.1549C113.101 62.1549 116.329 61.5695 119.034 60.3991C121.738 59.2288 123.816 57.5939 125.269 55.4954C126.763 53.356 127.509 50.874 127.509 48.0487C127.509 45.3044 126.804 42.9837 125.391 41.0866C124.018 39.1495 122.102 37.636 119.639 36.5465C117.177 35.4161 114.332 34.7098 111.103 34.4276L107.713 34.1249C105.695 33.9631 104.242 33.4186 103.354 32.49C102.466 31.5619 102.022 30.472 102.022 29.2212C102.022 28.2522 102.265 27.3645 102.748 26.5573C103.233 25.7097 103.959 25.0438 104.928 24.5593C105.937 24.0753 107.168 23.833 108.621 23.833C110.154 23.833 111.426 24.1152 112.435 24.6807C112.657 24.8001 112.868 24.9278 113.066 25.0633L113.114 25.0969C113.188 25.1481 113.261 25.2013 113.332 25.2549C113.945 25.7233 114.433 26.2785 114.796 26.9205C115.32 27.8086 115.584 28.7971 115.584 29.8871H125.269C125.269 26.9809 124.603 24.4584 123.272 22.3195C121.94 20.1401 120.023 18.4653 117.521 17.2944C115.058 16.0836 112.092 15.4782 108.621 15.4782C105.311 15.4782 102.446 16.0436 100.024 17.1735C97.6027 18.2635 95.7056 19.8374 94.3339 21.8954C93.0012 23.9539 92.3354 26.396 92.3354 29.2212C92.3354 33.1359 93.6476 36.2838 96.271 38.6654C98.8944 41.0466 102.406 42.4188 106.805 42.7819L110.135 43.0846C112.838 43.3269 114.796 43.8718 116.007 44.719C117.217 45.5262 117.823 46.6361 117.823 48.0487C117.823 48.698 117.717 49.3068 117.504 49.8757C117.346 50.2978 117.13 50.698 116.855 51.0758C116.208 51.9234 115.26 52.5893 114.009 53.0738C112.758 53.5578 111.204 53.8001 109.347 53.8001C107.289 53.8001 105.614 53.5179 104.323 52.9524C103.031 52.347 102.063 51.5603 101.416 50.5917C100.811 49.6227 100.509 48.5737 100.509 47.4433H90.8828C90.8828 50.309 91.5886 52.8515 93.0012 55.0714C94.4139 57.2512 96.4933 58.9865 99.2376 60.2777Z" fill="rgb(238, 188, 74)"/>
<path d="M164.256 61.4281C160.906 61.4281 158.202 61.0245 156.144 60.2173C154.085 59.3696 152.572 57.9775 151.603 56.0404C150.675 54.0623 150.211 51.3989 150.211 48.0487V34.9116H145.186V27.8286H150.211V18.8689H159.231V27.8286H168.918V34.9116H159.231V48.4124C159.231 49.9863 159.635 51.1971 160.442 52.0443C161.289 52.8515 162.48 53.2551 164.014 53.2551H168.918V61.4281H164.256Z" fill="rgb(238, 188, 74)"/>
<path fill-rule="evenodd" clip-rule="evenodd" d="M180.58 60.7018C182.759 61.6704 185.262 62.1549 188.087 62.1549C190.871 62.1549 193.334 61.6704 195.473 60.7018C197.612 59.7333 199.388 58.3811 200.8 56.6458C202.213 54.91 203.162 52.9324 203.645 50.7126H194.746C194.343 51.7216 193.576 52.5693 192.446 53.2551C191.316 53.9415 189.862 54.2846 188.087 54.2846C186.987 54.2846 186.004 54.1545 185.138 53.8942C184.479 53.6963 183.888 53.4228 183.365 53.0738C182.154 52.2666 181.266 51.1362 180.701 49.6836C180.544 49.2698 180.41 48.8369 180.297 48.3861C180.182 47.9293 180.089 47.4541 180.019 46.9593H204.251V43.69C204.251 40.663 203.605 37.8782 202.314 35.3357C201.022 32.7523 199.145 30.6738 196.684 29.0998C194.262 27.4854 191.275 26.6782 187.723 26.6782C185.019 26.6782 182.597 27.1627 180.458 28.1313C178.361 29.0594 176.605 30.3306 175.192 31.9451C173.78 33.5595 172.69 35.3962 171.922 37.4546C171.196 39.4722 170.833 41.5911 170.833 43.8109V45.0217C170.833 47.1611 171.196 49.2596 171.922 51.318C172.69 53.3361 173.78 55.1723 175.192 56.8271C176.645 58.4415 178.44 59.7333 180.58 60.7018ZM180.186 40.973C180.213 40.8448 180.241 40.7186 180.272 40.5943C180.356 40.2521 180.453 39.924 180.563 39.6106C180.625 39.4322 180.691 39.2582 180.762 39.089C181.367 37.5955 182.255 36.4656 183.425 35.6989C183.863 35.4122 184.337 35.1792 184.846 34.9999C185.702 34.6991 186.662 34.5485 187.723 34.5485C189.379 34.5485 190.75 34.9321 191.84 35.6989C192.97 36.4252 193.818 37.4946 194.383 38.9072C194.429 39.0213 194.472 39.1373 194.514 39.2548C194.581 39.4419 194.643 39.634 194.701 39.8309C194.786 40.1239 194.861 40.4271 194.927 40.7405C194.975 40.9715 195.016 41.208 195.053 41.4502H180.093C180.121 41.2884 180.152 41.1295 180.186 40.973Z" fill="rgb(238, 188, 74)"/>
<path d="M208.248 61.0045V27.8286H215.937V36.1844C216.041 35.6876 216.16 35.2109 216.293 34.7537C216.407 34.3686 216.529 33.9972 216.663 33.6404C217.511 31.3801 218.782 29.6853 220.477 28.5549C222.172 27.3845 224.25 26.7996 226.713 26.7996H227.136C229.639 26.7996 231.717 27.3845 233.372 28.5549C235.067 29.6853 236.339 31.3801 237.186 33.6404L237.253 33.811L237.31 33.967C237.348 33.8568 237.388 33.7481 237.428 33.6404C238.316 31.3801 239.608 29.6853 241.303 28.5549C242.998 27.3845 245.077 26.7996 247.539 26.7996H247.963C250.464 26.7996 252.563 27.3845 254.258 28.5549C255.994 29.6853 257.306 31.3801 258.193 33.6404C259.081 35.9007 259.526 38.7259 259.526 42.1161V61.0045H249.839V41.5711C249.839 39.7549 249.355 38.2818 248.386 37.1519C247.458 36.0215 246.126 35.4566 244.391 35.4566C242.655 35.4566 241.283 36.042 240.274 37.2124C239.265 38.3423 238.76 39.8558 238.76 41.7529V61.0045H229.013V41.5711C229.013 39.7549 228.529 38.2818 227.56 37.1519C226.632 36.0215 225.32 35.4566 223.626 35.4566C221.849 35.4566 220.457 36.042 219.448 37.2124C218.439 38.3423 217.934 39.8558 217.934 41.7529V61.0045H208.248Z" fill="rgb(238, 188, 74)"/>
<path fill-rule="evenodd" clip-rule="evenodd" d="M285.4 54.6122V61.0045H293.088V40.663C293.088 37.5955 292.483 35.0935 291.272 33.1559C290.061 31.1783 288.286 29.7052 285.945 28.7367C283.645 27.7681 280.799 27.2836 277.409 27.2836C276.674 27.2836 275.907 27.2914 275.107 27.3075C274.635 27.3173 274.15 27.3294 273.655 27.3441C272.323 27.3845 271.031 27.445 269.781 27.5259L268.825 27.5902C268.334 27.6243 267.873 27.658 267.439 27.6921C267.113 27.7174 266.804 27.7428 266.512 27.7681V35.9411C267.763 35.8602 269.155 35.7793 270.689 35.6989C271.118 35.6764 271.543 35.6555 271.965 35.636C272.575 35.6077 273.176 35.5833 273.771 35.5619C274.241 35.5448 274.707 35.5297 275.169 35.517C276.621 35.4766 277.792 35.4566 278.68 35.4566C280.456 35.4566 281.747 35.8802 282.555 36.7279C283.362 37.5755 283.765 38.8468 283.765 40.5421V40.663H277.772C274.826 40.663 272.223 41.0466 269.962 41.8134C267.702 42.5397 265.946 43.69 264.696 45.264C263.444 46.798 262.819 48.7755 262.819 51.1971C262.819 53.417 263.323 55.3341 264.332 56.9485C265.341 58.5225 266.733 59.7333 268.509 60.5804C270.326 61.4281 272.425 61.8522 274.805 61.8522C277.106 61.8522 279.043 61.4281 280.618 60.5804C282.232 59.7333 283.483 58.5225 284.371 56.9485C284.527 56.6833 284.673 56.4079 284.809 56.1223C285.001 55.7177 285.172 55.2927 285.323 54.8471L285.4 54.6122ZM283.765 48.7151V46.0512H277.711C276.016 46.0512 274.705 46.4748 273.777 47.3225C272.889 48.1297 272.444 49.2396 272.444 50.6522C272.444 51.3171 272.555 51.9215 272.776 52.466C272.999 53.0119 273.332 53.4969 273.777 53.9215C274.705 54.7287 276.016 55.1323 277.711 55.1323C278.034 55.1323 278.346 55.1162 278.647 55.0845C278.893 55.0587 279.132 55.0221 279.363 54.9748C279.807 54.8847 280.226 54.7555 280.618 54.5873C281.506 54.1837 282.232 53.5179 282.796 52.5893C283.362 51.6612 283.685 50.3695 283.765 48.7151Z" fill="rgb(238, 188, 74)"/>
<path d="M298.885 61.0045V27.8286H306.574V38.779C306.942 35.653 307.871 33.1325 309.359 31.2188C311.377 28.6763 314.282 27.405 318.077 27.405H319.348V35.7593H316.926C314.263 35.7593 312.204 36.4856 310.751 37.9387C309.298 39.3513 308.571 41.4098 308.571 44.1136V61.0045H298.885Z" fill="rgb(238, 188, 74)"/>
<path d="M331.631 45.5062H334.84L345.313 61.0045H356.21L342.93 41.9708L353.849 27.8286H343.679L331.631 43.6033V16.8104H321.945V61.0045H331.631V45.5062Z" fill="rgb(238, 188, 74)"/>
</svg>
